<svg width="72" height="72" viewBox="0 0 72 72" fill="none" xmlns="http://www.w3.org/2000/svg">
<g id="village">
<path id="Icon" d="M27 60.0002L42 60V29.4853C42 27.894 41.3679 26.3679 40.2426 25.2426L31.2426 16.2426C28.8995 13.8995 25.1005 13.8995 22.7574 16.2426L13.7574 25.2426C12.6321 26.3679 12 27.894 12 29.4853V54.0001C12 57.3138 14.6863 60 17.9999 60.0001L27 60.0002ZM42 60L57 60.0001C60.3137 60.0001 63 57.3139 63 54.0001V38.4855C63 36.8942 62.3679 35.368 61.2426 34.2428L55.2426 28.2428C52.8995 25.8997 49.1005 25.8997 46.7574 28.2428L42 33.0002M27 60.0002V48.0002" stroke="black" stroke-width="6" stroke-linecap="round" stroke-linejoin="round"/>
</g>
</svg>
